{
    "asset" : {
        "generator" : "Khronos glTF Blender I/O v0.9.36",
        "version" : "2.0"
    },
    "scene" : 0,
    "scenes" : [
        {
            "name" : "Scene",
            "nodes" : [
                0,
                1,
                2,
                3,
                4,
                5
            ]
        }
    ],
    "nodes" : [
        {
            "name" : "Light",
            "rotation" : [
                0.16907575726509094,
                0.7558803558349609,
                -0.27217137813568115,
                0.570947527885437
            ],
            "translation" : [
                4.076245307922363,
                5.903861999511719,
                -1.0054539442062378
            ]
        },
        {
            "name" : "Camera",
            "rotation" : [
                0.483536034822464,
                0.33687159419059753,
                -0.20870360732078552,
                0.7804827094078064
            ],
            "translation" : [
                7.358891487121582,
                4.958309173583984,
                6.925790786743164
            ]
        },
        {
            "name" : "Light.001",
            "rotation" : [
                0.5232754945755005,
                0.34203392267227173,
                -0.7269423604011536,
                0.284166157245636
            ],
            "translation" : [
                4.076245307922363,
                5.903862476348877,
                -1.0054532289505005
            ]
        },
        {
            "name" : "Camera.001",
            "rotation" : [
                0.8937963247299194,
                0.09062855690717697,
                -0.3857799172401428,
                0.20997287333011627
            ],
            "translation" : [
                7.358891487121582,
                4.958308696746826,
                6.925792217254639
            ]
        },
        {
            "mesh" : 0,
            "name" : "europallet_006_europallet_006Mesh",
            "translation" : [
                0,
                0,
                0.35549506545066833
            ]
        },
        {
            "mesh" : 1,
            "name" : "palletkrat_006_palletkrat_006Mesh",
            "translation" : [
                0,
                0,
                0.35549506545066833
            ]
        }
    ],
    "materials" : [
        {
            "doubleSided" : true,
            "name" : "palet",
            "pbrMetallicRoughness" : {
                "baseColorFactor" : [
                    0.0800120010972023,
                    0.01947700046002865,
                    0,
                    1
                ],
                "metallicFactor" : 0,
                "roughnessFactor" : 0.5
            }
        },
        {
            "doubleSided" : true,
            "name" : "Doos",
            "pbrMetallicRoughness" : {
                "baseColorFactor" : [
                    0.9403929710388184,
                    0.32516199350357056,
                    0.10854499787092209,
                    1
                ],
                "metallicFactor" : 0,
                "roughnessFactor" : 0.5
            }
        }
    ],
    "meshes" : [
        {
            "name" : "europallet_006_europallet_006Mesh",
            "primitives" : [
                {
                    "attributes" : {
                        "POSITION" : 0,
                        "NORMAL" : 1,
                        "TEXCOORD_0" : 2
                    },
                    "indices" : 3,
                    "material" : 0
                }
            ]
        },
        {
            "name" : "palletkrat_006_palletkrat_006Mesh",
            "primitives" : [
                {
                    "attributes" : {
                        "POSITION" : 4,
                        "NORMAL" : 5,
                        "TEXCOORD_0" : 6
                    },
                    "indices" : 7,
                    "material" : 1
                }
            ]
        }
    ],
    "accessors" : [
        {
            "bufferView" : 0,
            "componentType" : 5126,
            "count" : 1201,
            "max" : [
                0.6014630198478699,
                0,
                0.017076000571250916
            ],
            "min" : [
                -0.6033369898796082,
                -0.14545300602912903,
                -0.7835490107536316
            ],
            "type" : "VEC3"
        },
        {
            "bufferView" : 1,
            "componentType" : 5126,
            "count" : 1201,
            "type" : "VEC3"
        },
        {
            "bufferView" : 2,
            "componentType" : 5126,
            "count" : 1201,
            "type" : "VEC2"
        },
        {
            "bufferView" : 3,
            "componentType" : 5123,
            "count" : 1770,
            "type" : "SCALAR"
        },
        {
            "bufferView" : 4,
            "componentType" : 5126,
            "count" : 1381,
            "max" : [
                0.6140260100364685,
                -0.10960300266742706,
                0.0266759991645813
            ],
            "min" : [
                -0.6031050086021423,
                -0.7455530166625977,
                -0.7864490151405334
            ],
            "type" : "VEC3"
        },
        {
            "bufferView" : 5,
            "componentType" : 5126,
            "count" : 1381,
            "type" : "VEC3"
        },
        {
            "bufferView" : 6,
            "componentType" : 5126,
            "count" : 1381,
            "type" : "VEC2"
        },
        {
            "bufferView" : 7,
            "componentType" : 5123,
            "count" : 1677,
            "type" : "SCALAR"
        }
    ],
    "bufferViews" : [
        {
            "buffer" : 0,
            "byteLength" : 14412,
            "byteOffset" : 0
        },
        {
            "buffer" : 0,
            "byteLength" : 14412,
            "byteOffset" : 14412
        },
        {
            "buffer" : 0,
            "byteLength" : 9608,
            "byteOffset" : 28824
        },
        {
            "buffer" : 0,
            "byteLength" : 3540,
            "byteOffset" : 38432
        },
        {
            "buffer" : 0,
            "byteLength" : 16572,
            "byteOffset" : 41972
        },
        {
            "buffer" : 0,
            "byteLength" : 16572,
            "byteOffset" : 58544
        },
        {
            "buffer" : 0,
            "byteLength" : 11048,
            "byteOffset" : 75116
        },
        {
            "buffer" : 0,
            "byteLength" : 3354,
            "byteOffset" : 86164
        }
    ],
    "buffers" : [
        {
            "byteLength" : 89520,
            "uri" : "data:application/octet-stream;base64,"
        }
    ]
}
