{
    "asset" : {
        "generator" : "Khronos glTF Blender I/O v0.9.36",
        "version" : "2.0"
    },
    "scene" : 0,
    "scenes" : [
        {
            "name" : "Scene",
            "nodes" : [
                0,
                1,
                2,
                3,
                4,
                5,
                6,
                7,
                8
            ]
        }
    ],
    "nodes" : [
        {
            "mesh" : 0,
            "name" : "back",
            "translation" : [
                196.20062255859375,
                11.635578155517578,
                -80.95149993896484
            ]
        },
        {
            "mesh" : 1,
            "name" : "front",
            "translation" : [
                196.20062255859375,
                11.635578155517578,
                -80.95149993896484
            ]
        },
        {
            "mesh" : 2,
            "name" : "frontleftwheel",
            "translation" : [
                196.20062255859375,
                11.635578155517578,
                -80.95149993896484
            ]
        },
        {
            "mesh" : 3,
            "name" : "frontrightwheel",
            "translation" : [
                196.20062255859375,
                11.635578155517578,
                -80.95149993896484
            ]
        },
        {
            "mesh" : 4,
            "name" : "backleftwheel",
            "translation" : [
                196.20062255859375,
                11.635578155517578,
                -80.95149993896484
            ]
        },
        {
            "mesh" : 5,
            "name" : "backrightwheel",
            "translation" : [
                196.20062255859375,
                11.635578155517578,
                -80.95149993896484
            ]
        },
        {
            "mesh" : 6,
            "name" : "front.001",
            "translation" : [
                196.20062255859375,
                11.635578155517578,
                -80.95149993896484
            ]
        },
        {
            "mesh" : 7,
            "name" : "Libraman",
            "rotation" : [
                -0.002468145452439785,
                -0.7071024775505066,
                -0.7071024775505066,
                -0.0024681452196091413
            ],
            "scale" : [
                15,
                15,
                15
            ],
            "translation" : [
                -18.349300384521484,
                38.65288162231445,
                23.759891510009766
            ]
        },
        {
            "mesh" : 8,
            "name" : "Libraman.001",
            "rotation" : [
                -0.7071067690849304,
                -0.0037024151533842087,
                0,
                0.7070971131324768
            ],
            "scale" : [
                15,
                15,
                15
            ],
            "translation" : [
                -18.349300384521484,
                38.65288162231445,
                -24.71100616455078
            ]
        }
    ],
    "materials" : [
        {
            "doubleSided" : true,
            "name" : "Material.002",
            "pbrMetallicRoughness" : {
                "baseColorFactor" : [
                    0.0006070584058761597,
                    0.06480328738689423,
                    0.2704978585243225,
                    1
                ],
                "metallicFactor" : 0,
                "roughnessFactor" : 0.5
            }
        },
        {
            "doubleSided" : true,
            "name" : "Material.003",
            "pbrMetallicRoughness" : {
                "baseColorFactor" : [
                    0.7605246901512146,
                    0.002428116276860237,
                    0.008023208007216454,
                    1
                ],
                "metallicFactor" : 0,
                "roughnessFactor" : 0.5
            }
        },
        {
            "doubleSided" : true,
            "name" : "Material.004",
            "pbrMetallicRoughness" : {
                "baseColorFactor" : [
                    0,
                    0,
                    0,
                    1
                ],
                "metallicFactor" : 0,
                "roughnessFactor" : 0.5
            }
        },
        {
            "doubleSided" : true,
            "name" : "Material.005",
            "pbrMetallicRoughness" : {
                "baseColorFactor" : [
                    0,
                    0,
                    0,
                    1
                ],
                "metallicFactor" : 0,
                "roughnessFactor" : 0.5
            }
        },
        {
            "doubleSided" : true,
            "name" : "Libraman",
            "pbrMetallicRoughness" : {}
        },
        {
            "doubleSided" : true,
            "name" : "Libraman.002",
            "pbrMetallicRoughness" : {}
        }
    ],
    "meshes" : [
        {
            "name" : "Car_09",
            "primitives" : [
                {
                    "attributes" : {
                        "POSITION" : 0,
                        "NORMAL" : 1,
                        "TEXCOORD_0" : 2
                    },
                    "indices" : 3,
                    "material" : 0
                }
            ]
        },
        {
            "name" : "Car_09.001",
            "primitives" : [
                {
                    "attributes" : {
                        "POSITION" : 4,
                        "NORMAL" : 5,
                        "TEXCOORD_0" : 6
                    },
                    "indices" : 7,
                    "material" : 1
                }
            ]
        },
        {
            "name" : "Car_09.002",
            "primitives" : [
                {
                    "attributes" : {
                        "POSITION" : 8,
                        "NORMAL" : 9,
                        "TEXCOORD_0" : 10
                    },
                    "indices" : 11,
                    "material" : 2
                }
            ]
        },
        {
            "name" : "Car_09.003",
            "primitives" : [
                {
                    "attributes" : {
                        "POSITION" : 12,
                        "NORMAL" : 13,
                        "TEXCOORD_0" : 14
                    },
                    "indices" : 11,
                    "material" : 2
                }
            ]
        },
        {
            "name" : "Car_09.004",
            "primitives" : [
                {
                    "attributes" : {
                        "POSITION" : 15,
                        "NORMAL" : 16,
                        "TEXCOORD_0" : 17
                    },
                    "indices" : 11,
                    "material" : 2
                }
            ]
        },
        {
            "name" : "Car_09.005",
            "primitives" : [
                {
                    "attributes" : {
                        "POSITION" : 18,
                        "NORMAL" : 19,
                        "TEXCOORD_0" : 20
                    },
                    "indices" : 11,
                    "material" : 2
                }
            ]
        },
        {
            "name" : "Car_09.007",
            "primitives" : [
                {
                    "attributes" : {
                        "POSITION" : 21,
                        "NORMAL" : 22,
                        "TEXCOORD_0" : 23
                    },
                    "indices" : 24,
                    "material" : 3
                }
            ]
        },
        {
            "name" : "Libraman",
            "primitives" : [
                {
                    "attributes" : {
                        "POSITION" : 25,
                        "NORMAL" : 26,
                        "TEXCOORD_0" : 27
                    },
                    "indices" : 28,
                    "material" : 4
                }
            ]
        },
        {
            "name" : "Libraman.002",
            "primitives" : [
                {
                    "attributes" : {
                        "POSITION" : 29,
                        "NORMAL" : 30,
                        "TEXCOORD_0" : 31
                    },
                    "indices" : 28,
                    "material" : 5
                }
            ]
        }
    ],
    "accessors" : [
        {
            "bufferView" : 0,
            "componentType" : 5126,
            "count" : 30,
            "max" : [
                -176.8102569580078,
                56.81532287597656,
                104.4367446899414
            ],
            "min" : [
                -259.040771484375,
                -5.865864276885986,
                56.53390121459961
            ],
            "type" : "VEC3"
        },
        {
            "bufferView" : 1,
            "componentType" : 5126,
            "count" : 30,
            "type" : "VEC3"
        },
        {
            "bufferView" : 2,
            "componentType" : 5126,
            "count" : 30,
            "type" : "VEC2"
        },
        {
            "bufferView" : 3,
            "componentType" : 5123,
            "count" : 54,
            "type" : "SCALAR"
        },
        {
            "bufferView" : 4,
            "componentType" : 5126,
            "count" : 26,
            "max" : [
                -138.3165740966797,
                43.29995346069336,
                104.4367446899414
            ],
            "min" : [
                -176.8102569580078,
                -5.865864276885986,
                56.53390121459961
            ],
            "type" : "VEC3"
        },
        {
            "bufferView" : 5,
            "componentType" : 5126,
            "count" : 26,
            "type" : "VEC3"
        },
        {
            "bufferView" : 6,
            "componentType" : 5126,
            "count" : 26,
            "type" : "VEC2"
        },
        {
            "bufferView" : 7,
            "componentType" : 5123,
            "count" : 48,
            "type" : "SCALAR"
        },
        {
            "bufferView" : 8,
            "componentType" : 5126,
            "count" : 212,
            "max" : [
                -153.32554626464844,
                3.5072824954986572,
                58.56272506713867
            ],
            "min" : [
                -166.8531494140625,
                -9.814815521240234,
                54.660972595214844
            ],
            "type" : "VEC3"
        },
        {
            "bufferView" : 9,
            "componentType" : 5126,
            "count" : 212,
            "type" : "VEC3"
        },
        {
            "bufferView" : 10,
            "componentType" : 5126,
            "count" : 212,
            "type" : "VEC2"
        },
        {
            "bufferView" : 11,
            "componentType" : 5123,
            "count" : 216,
            "type" : "SCALAR"
        },
        {
            "bufferView" : 12,
            "componentType" : 5126,
            "count" : 212,
            "max" : [
                -153.32554626464844,
                3.5072824954986572,
                106.50871276855469
            ],
            "min" : [
                -166.8531494140625,
                -9.814815521240234,
                102.60696411132812
            ],
            "type" : "VEC3"
        },
        {
            "bufferView" : 13,
            "componentType" : 5126,
            "count" : 212,
            "type" : "VEC3"
        },
        {
            "bufferView" : 14,
            "componentType" : 5126,
            "count" : 212,
            "type" : "VEC2"
        },
        {
            "bufferView" : 15,
            "componentType" : 5126,
            "count" : 212,
            "max" : [
                -226.88702392578125,
                3.5072824954986572,
                58.56272506713867
            ],
            "min" : [
                -240.41464233398438,
                -9.814815521240234,
                54.660972595214844
            ],
            "type" : "VEC3"
        },
        {
            "bufferView" : 16,
            "componentType" : 5126,
            "count" : 212,
            "type" : "VEC3"
        },
        {
            "bufferView" : 17,
            "componentType" : 5126,
            "count" : 212,
            "type" : "VEC2"
        },
        {
            "bufferView" : 18,
            "componentType" : 5126,
            "count" : 212,
            "max" : [
                -226.88702392578125,
                3.5072824954986572,
                106.50871276855469
            ],
            "min" : [
                -240.41464233398438,
                -9.814815521240234,
                102.60696411132812
            ],
            "type" : "VEC3"
        },
        {
            "bufferView" : 19,
            "componentType" : 5126,
            "count" : 212,
            "type" : "VEC3"
        },
        {
            "bufferView" : 20,
            "componentType" : 5126,
            "count" : 212,
            "type" : "VEC2"
        },
        {
            "bufferView" : 21,
            "componentType" : 5126,
            "count" : 36,
            "max" : [
                -138.3165740966797,
                43.29995346069336,
                104.4367446899414
            ],
            "min" : [
                -157.51158142089844,
                12.509325981140137,
                56.53390121459961
            ],
            "type" : "VEC3"
        },
        {
            "bufferView" : 22,
            "componentType" : 5126,
            "count" : 36,
            "type" : "VEC3"
        },
        {
            "bufferView" : 23,
            "componentType" : 5126,
            "count" : 36,
            "type" : "VEC2"
        },
        {
            "bufferView" : 24,
            "componentType" : 5123,
            "count" : 36,
            "type" : "SCALAR"
        },
        {
            "bufferView" : 25,
            "componentType" : 5126,
            "count" : 4,
            "max" : [
                2.0224719047546387,
                0,
                0.5
            ],
            "min" : [
                -2.0224719047546387,
                0,
                -0.5
            ],
            "type" : "VEC3"
        },
        {
            "bufferView" : 26,
            "componentType" : 5126,
            "count" : 4,
            "type" : "VEC3"
        },
        {
            "bufferView" : 27,
            "componentType" : 5126,
            "count" : 4,
            "type" : "VEC2"
        },
        {
            "bufferView" : 28,
            "componentType" : 5123,
            "count" : 6,
            "type" : "SCALAR"
        },
        {
            "bufferView" : 29,
            "componentType" : 5126,
            "count" : 4,
            "max" : [
                2.0224719047546387,
                0,
                0.5
            ],
            "min" : [
                -2.0224719047546387,
                0,
                -0.5
            ],
            "type" : "VEC3"
        },
        {
            "bufferView" : 30,
            "componentType" : 5126,
            "count" : 4,
            "type" : "VEC3"
        },
        {
            "bufferView" : 31,
            "componentType" : 5126,
            "count" : 4,
            "type" : "VEC2"
        }
    ],
    "bufferViews" : [
        {
            "buffer" : 0,
            "byteLength" : 360,
            "byteOffset" : 0
        },
        {
            "buffer" : 0,
            "byteLength" : 360,
            "byteOffset" : 360
        },
        {
            "buffer" : 0,
            "byteLength" : 240,
            "byteOffset" : 720
        },
        {
            "buffer" : 0,
            "byteLength" : 108,
            "byteOffset" : 960
        },
        {
            "buffer" : 0,
            "byteLength" : 312,
            "byteOffset" : 1068
        },
        {
            "buffer" : 0,
            "byteLength" : 312,
            "byteOffset" : 1380
        },
        {
            "buffer" : 0,
            "byteLength" : 208,
            "byteOffset" : 1692
        },
        {
            "buffer" : 0,
            "byteLength" : 96,
            "byteOffset" : 1900
        },
        {
            "buffer" : 0,
            "byteLength" : 2544,
            "byteOffset" : 1996
        },
        {
            "buffer" : 0,
            "byteLength" : 2544,
            "byteOffset" : 4540
        },
        {
            "buffer" : 0,
            "byteLength" : 1696,
            "byteOffset" : 7084
        },
        {
            "buffer" : 0,
            "byteLength" : 432,
            "byteOffset" : 8780
        },
        {
            "buffer" : 0,
            "byteLength" : 2544,
            "byteOffset" : 9212
        },
        {
            "buffer" : 0,
            "byteLength" : 2544,
            "byteOffset" : 11756
        },
        {
            "buffer" : 0,
            "byteLength" : 1696,
            "byteOffset" : 14300
        },
        {
            "buffer" : 0,
            "byteLength" : 2544,
            "byteOffset" : 15996
        },
        {
            "buffer" : 0,
            "byteLength" : 2544,
            "byteOffset" : 18540
        },
        {
            "buffer" : 0,
            "byteLength" : 1696,
            "byteOffset" : 21084
        },
        {
            "buffer" : 0,
            "byteLength" : 2544,
            "byteOffset" : 22780
        },
        {
            "buffer" : 0,
            "byteLength" : 2544,
            "byteOffset" : 25324
        },
        {
            "buffer" : 0,
            "byteLength" : 1696,
            "byteOffset" : 27868
        },
        {
            "buffer" : 0,
            "byteLength" : 432,
            "byteOffset" : 29564
        },
        {
            "buffer" : 0,
            "byteLength" : 432,
            "byteOffset" : 29996
        },
        {
            "buffer" : 0,
            "byteLength" : 288,
            "byteOffset" : 30428
        },
        {
            "buffer" : 0,
            "byteLength" : 72,
            "byteOffset" : 30716
        },
        {
            "buffer" : 0,
            "byteLength" : 48,
            "byteOffset" : 30788
        },
        {
            "buffer" : 0,
            "byteLength" : 48,
            "byteOffset" : 30836
        },
        {
            "buffer" : 0,
            "byteLength" : 32,
            "byteOffset" : 30884
        },
        {
            "buffer" : 0,
            "byteLength" : 12,
            "byteOffset" : 30916
        },
        {
            "buffer" : 0,
            "byteLength" : 48,
            "byteOffset" : 30928
        },
        {
            "buffer" : 0,
            "byteLength" : 48,
            "byteOffset" : 30976
        },
        {
            "buffer" : 0,
            "byteLength" : 32,
            "byteOffset" : 31024
        }
    ],
    "buffers" : [
        {
            "byteLength" : 31056,
            "uri" : "data:application/octet-stream;base64,"
        }
    ]
}
