{
    "asset" : {
        "generator" : "Khronos glTF Blender I/O v0.9.36",
        "version" : "2.0"
    },
    "scene" : 0,
    "scenes" : [
        {
            "name" : "Scene",
            "nodes" : [
                0,
                1,
                2,
                3,
                4
            ]
        }
    ],
    "nodes" : [
        {
            "name" : "Light",
            "rotation" : [
                0.16907575726509094,
                0.7558803558349609,
                -0.27217137813568115,
                0.570947527885437
            ],
            "translation" : [
                4.076245307922363,
                5.903861999511719,
                -1.0054539442062378
            ]
        },
        {
            "name" : "Camera",
            "rotation" : [
                0.483536034822464,
                0.33687159419059753,
                -0.20870360732078552,
                0.7804827094078064
            ],
            "translation" : [
                7.358891487121582,
                4.958309173583984,
                6.925790786743164
            ]
        },
        {
            "mesh" : 0,
            "name" : "Rack",
            "translation" : [
                -0.3024378716945648,
                0.4182364046573639,
                -2.0682950019836426
            ]
        },
        {
            "mesh" : 1,
            "name" : "Rack.001",
            "translation" : [
                0,
                0,
                -2.17391037940979
            ]
        },
        {
            "mesh" : 2,
            "name" : "Rack.002",
            "translation" : [
                -0.9841995239257812,
                0.29981982707977295,
                -151.0123748779297
            ]
        }
    ],
    "materials" : [
        {
            "doubleSided" : true,
            "name" : "Material.001",
            "pbrMetallicRoughness" : {
                "baseColorFactor" : [
                    0.947306752204895,
                    0.8307697772979736,
                    0.012286536395549774,
                    1
                ],
                "metallicFactor" : 0,
                "roughnessFactor" : 0.5
            }
        },
        {
            "doubleSided" : true,
            "name" : "Material.003",
            "pbrMetallicRoughness" : {
                "baseColorFactor" : [
                    0.0006070584058761597,
                    0.06480328738689423,
                    0.2704978585243225,
                    1
                ],
                "metallicFactor" : 0,
                "roughnessFactor" : 0.5
            }
        },
        {
            "doubleSided" : true,
            "name" : "Material.002",
            "pbrMetallicRoughness" : {
                "baseColorFactor" : [
                    0.7605246901512146,
                    0.002428116276860237,
                    0.008023208007216454,
                    1
                ],
                "metallicFactor" : 0,
                "roughnessFactor" : 0.5
            }
        }
    ],
    "meshes" : [
        {
            "name" : "Rack",
            "primitives" : [
                {
                    "attributes" : {
                        "POSITION" : 0,
                        "NORMAL" : 1
                    },
                    "indices" : 2,
                    "material" : 0
                }
            ]
        },
        {
            "name" : "Rack.001",
            "primitives" : [
                {
                    "attributes" : {
                        "POSITION" : 3,
                        "NORMAL" : 4
                    },
                    "indices" : 5,
                    "material" : 1
                }
            ]
        },
        {
            "name" : "Rack.002",
            "primitives" : [
                {
                    "attributes" : {
                        "POSITION" : 6,
                        "NORMAL" : 7
                    },
                    "indices" : 5,
                    "material" : 2
                }
            ]
        }
    ],
    "accessors" : [
        {
            "bufferView" : 0,
            "componentType" : 5126,
            "count" : 3023,
            "max" : [
                22.38278579711914,
                158.673095703125,
                70.00550079345703
            ],
            "min" : [
                -22.311328887939453,
                30.856740951538086,
                -76.25852966308594
            ],
            "type" : "VEC3"
        },
        {
            "bufferView" : 1,
            "componentType" : 5126,
            "count" : 3023,
            "type" : "VEC3"
        },
        {
            "bufferView" : 2,
            "componentType" : 5123,
            "count" : 5271,
            "type" : "SCALAR"
        },
        {
            "bufferView" : 3,
            "componentType" : 5126,
            "count" : 535,
            "max" : [
                23.60004425048828,
                188.99649047851562,
                76.25852966308594
            ],
            "min" : [
                -23.258224487304688,
                0.035858154296875,
                66.36089324951172
            ],
            "type" : "VEC3"
        },
        {
            "bufferView" : 4,
            "componentType" : 5126,
            "count" : 535,
            "type" : "VEC3"
        },
        {
            "bufferView" : 5,
            "componentType" : 5123,
            "count" : 1149,
            "type" : "SCALAR"
        },
        {
            "bufferView" : 6,
            "componentType" : 5126,
            "count" : 535,
            "max" : [
                23.60004425048828,
                188.99649047851562,
                76.25852966308594
            ],
            "min" : [
                -23.258224487304688,
                0.035858154296875,
                66.36089324951172
            ],
            "type" : "VEC3"
        },
        {
            "bufferView" : 7,
            "componentType" : 5126,
            "count" : 535,
            "type" : "VEC3"
        }
    ],
    "bufferViews" : [
        {
            "buffer" : 0,
            "byteLength" : 36276,
            "byteOffset" : 0
        },
        {
            "buffer" : 0,
            "byteLength" : 36276,
            "byteOffset" : 36276
        },
        {
            "buffer" : 0,
            "byteLength" : 10542,
            "byteOffset" : 72552
        },
        {
            "buffer" : 0,
            "byteLength" : 6420,
            "byteOffset" : 83096
        },
        {
            "buffer" : 0,
            "byteLength" : 6420,
            "byteOffset" : 89516
        },
        {
            "buffer" : 0,
            "byteLength" : 2298,
            "byteOffset" : 95936
        },
        {
            "buffer" : 0,
            "byteLength" : 6420,
            "byteOffset" : 98236
        },
        {
            "buffer" : 0,
            "byteLength" : 6420,
            "byteOffset" : 104656
        }
    ],
    "buffers" : [
        {
            "byteLength" : 111076,
            "uri" : "data:application/octet-stream;base64,"
        }
    ]
}
