{
    "asset" : {
        "generator" : "Khronos glTF Blender I/O v0.9.36",
        "version" : "2.0"
    },
    "scene" : 0,
    "scenes" : [
        {
            "name" : "Scene",
            "nodes" : [
                0,
                1,
                2,
                3
            ]
        }
    ],
    "nodes" : [
        {
            "name" : "Light",
            "rotation" : [
                0.16907575726509094,
                0.7558803558349609,
                -0.27217137813568115,
                0.570947527885437
            ],
            "translation" : [
                4.076245307922363,
                5.903861999511719,
                -1.0054539442062378
            ]
        },
        {
            "name" : "Camera",
            "rotation" : [
                0.483536034822464,
                0.33687159419059753,
                -0.20870360732078552,
                0.7804827094078064
            ],
            "translation" : [
                7.358891487121582,
                4.958309173583984,
                6.925790786743164
            ]
        },
        {
            "mesh" : 0,
            "name" : "europallet_006_europallet_006Mesh",
            "rotation" : [
                0.7071068286895752,
                0,
                0,
                0.7071067094802856
            ]
        },
        {
            "mesh" : 1,
            "name" : "palletkrat_006_palletkrat_006Mesh",
            "rotation" : [
                0.7071068286895752,
                0,
                0,
                0.7071067094802856
            ]
        }
    ],
    "materials" : [
        {
            "doubleSided" : true,
            "name" : "palet",
            "pbrMetallicRoughness" : {
                "baseColorFactor" : [
                    0.0800120010972023,
                    0.01947700046002865,
                    0,
                    1
                ],
                "metallicFactor" : 0,
                "roughnessFactor" : 0.5
            }
        },
        {
            "doubleSided" : true,
            "name" : "Doos",
            "pbrMetallicRoughness" : {
                "baseColorFactor" : [
                    0.9403929710388184,
                    0.32516199350357056,
                    0.10854499787092209,
                    1
                ],
                "metallicFactor" : 0,
                "roughnessFactor" : 0.5
            }
        }
    ],
    "meshes" : [
        {
            "name" : "europallet_006_europallet_006Mesh",
            "primitives" : [
                {
                    "attributes" : {
                        "POSITION" : 0,
                        "NORMAL" : 1,
                        "TEXCOORD_0" : 2
                    },
                    "indices" : 3,
                    "material" : 0
                }
            ]
        },
        {
            "name" : "palletkrat_006_palletkrat_006Mesh",
            "primitives" : [
                {
                    "attributes" : {
                        "POSITION" : 4,
                        "NORMAL" : 5,
                        "TEXCOORD_0" : 6
                    },
                    "indices" : 7,
                    "material" : 1
                }
            ]
        }
    ],
    "accessors" : [
        {
            "bufferView" : 0,
            "componentType" : 5126,
            "count" : 1071,
            "max" : [
                0.6014630198478699,
                0.7835490107536316,
                0
            ],
            "min" : [
                -0.6033369898796082,
                -0.017076000571250916,
                -0.14545300602912903
            ],
            "type" : "VEC3"
        },
        {
            "bufferView" : 1,
            "componentType" : 5126,
            "count" : 1071,
            "type" : "VEC3"
        },
        {
            "bufferView" : 2,
            "componentType" : 5126,
            "count" : 1071,
            "type" : "VEC2"
        },
        {
            "bufferView" : 3,
            "componentType" : 5123,
            "count" : 1770,
            "type" : "SCALAR"
        },
        {
            "bufferView" : 4,
            "componentType" : 5126,
            "count" : 952,
            "max" : [
                0.6140260100364685,
                0.7864490151405334,
                -0.10960300266742706
            ],
            "min" : [
                -0.6031050086021423,
                -0.0266759991645813,
                -0.7455530166625977
            ],
            "type" : "VEC3"
        },
        {
            "bufferView" : 5,
            "componentType" : 5126,
            "count" : 952,
            "type" : "VEC3"
        },
        {
            "bufferView" : 6,
            "componentType" : 5126,
            "count" : 952,
            "type" : "VEC2"
        },
        {
            "bufferView" : 7,
            "componentType" : 5123,
            "count" : 1677,
            "type" : "SCALAR"
        }
    ],
    "bufferViews" : [
        {
            "buffer" : 0,
            "byteLength" : 12852,
            "byteOffset" : 0
        },
        {
            "buffer" : 0,
            "byteLength" : 12852,
            "byteOffset" : 12852
        },
        {
            "buffer" : 0,
            "byteLength" : 8568,
            "byteOffset" : 25704
        },
        {
            "buffer" : 0,
            "byteLength" : 3540,
            "byteOffset" : 34272
        },
        {
            "buffer" : 0,
            "byteLength" : 11424,
            "byteOffset" : 37812
        },
        {
            "buffer" : 0,
            "byteLength" : 11424,
            "byteOffset" : 49236
        },
        {
            "buffer" : 0,
            "byteLength" : 7616,
            "byteOffset" : 60660
        },
        {
            "buffer" : 0,
            "byteLength" : 3354,
            "byteOffset" : 68276
        }
    ],
    "buffers" : [
        {
            "byteLength" : 71632,
            "uri" : "data:application/octet-stream;base64,"
        }
    ]
}
